<?xml version="1.0" standalone="no"?>
<!DOCTYPE svg PUBLIC "-//W3C//DTD SVG 20010904//EN"
 "http://www.w3.org/TR/2001/REC-SVG-20010904/DTD/svg10.dtd">
<svg version="1.0" xmlns="http://www.w3.org/2000/svg"
 width="850.000000pt" height="850.000000pt" viewBox="0 0 850.000000 850.000000"
 preserveAspectRatio="xMidYMid meet">
<metadata>
Created by potrace 1.11, written by Peter Selinger 2001-2013
</metadata>
<g transform="translate(0.000000,850.000000) scale(0.100000,-0.100000)"
fill="#000000" stroke="none">
<path d="M4235 7749 c-110 -211 -235 -753 -235 -1013 0 -54 -1 -58 -14 -41 -7
11 -19 58 -25 104 -60 411 -371 745 -792 850 -125 31 -209 41 -354 41 -118 0
-340 -22 -353 -35 -10 -10 30 -180 65 -274 85 -232 215 -443 358 -587 263
-265 552 -342 894 -238 98 30 88 35 160 -84 41 -68 50 -93 55 -145 3 -34 10
-120 16 -192 6 -71 14 -140 17 -152 9 -37 -20 -28 -115 35 -291 195 -577 327
-855 398 -344 88 -718 68 -1047 -53 -427 -158 -797 -463 -1030 -848 -179 -297
-290 -648 -331 -1053 -17 -166 -6 -572 19 -737 64 -413 165 -695 405 -1130
489 -888 1252 -1740 1809 -2021 111 -56 205 -81 326 -90 182 -12 335 19 734
151 271 90 414 125 505 125 77 0 245 -51 393 -120 150 -69 226 -94 344 -115
155 -26 292 -15 448 36 238 77 432 220 793 584 697 701 1201 1505 1365 2180
99 408 119 882 55 1318 -98 661 -400 1201 -836 1493 -214 143 -429 217 -749
256 -158 19 -575 16 -725 -6 -270 -39 -517 -104 -811 -212 -98 -36 -221 -81
-273 -100 l-94 -35 7 153 c22 478 139 875 364 1228 l60 95 -18 35 c-27 54 -99
114 -188 159 -97 49 -180 71 -266 71 -63 0 -66 -1 -81 -31z m-1595 -1931 c72
-13 166 -57 212 -96 58 -51 81 -111 76 -202 -2 -62 -9 -88 -37 -143 -59 -115
-189 -241 -360 -347 -158 -98 -300 -146 -461 -156 -159 -10 -285 30 -376 121
-72 72 -97 142 -92 255 3 73 9 96 40 160 21 41 57 98 82 126 196 223 590 344
916 282z m866 -357 c58 -27 94 -77 94 -132 0 -65 -29 -105 -98 -136 -48 -22
-72 -26 -152 -27 -108 -1 -149 14 -175 64 -20 39 -19 56 9 116 25 53 67 92
126 118 49 21 146 20 196 -3z"/>
</g>
</svg>
